PathFileType	4	(X/Y/Z)	 s03c0202.trc
DataRate	CameraRate	NumFrames	NumMarkers	Units	OrigDataRate	OrigDataStartFrame	OrigNumFrames
200	200	6	52	mm	200	251	2000
Frame#	Time	racr			lacr			c7			jug			rlel			rdr			llel			ldr			s2			lic			ric			lasi			rasi			rpsi			lpsi			rgt			lgt			rth1			rth2			rth3			rth4			rlfc			rmfc			rsh1			rsh2			rsh3			rsh4			rlmal			rmmal			rcal			rtoe			rmt5			rmt1			lth1			lth2			lth4			lth3			llfc			lmfc			lsh1			lsh2			lsh3			lsh4			llmal			lmmal			lcal			ltoe			lmt1			lmt5			SBIKE			LBIKE			RBIKE			
		X1	Y1	Z1	X2	Y2	Z2	X3	Y3	Z3	X4	Y4	Z4	X5	Y5	Z5	X6	Y6	Z6	X7	Y7	Z7	X8	Y8	Z8	X9	Y9	Z9	X10	Y10	Z10	X11	Y11	Z11	X12	Y12	Z12	X13	Y13	Z13	X14	Y14	Z14	X15	Y15	Z15	X16	Y16	Z16	X17	Y17	Z17	X18	Y18	Z18	X19	Y19	Z19	X20	Y20	Z20	X21	Y21	Z21	X22	Y22	Z22	X23	Y23	Z23	X24	Y24	Z24	X25	Y25	Z25	X26	Y26	Z26	X27	Y27	Z27	X28	Y28	Z28	X29	Y29	Z29	X30	Y30	Z30	X31	Y31	Z31	X32	Y32	Z32	X33	Y33	Z33	X34	Y34	Z34	X35	Y35	Z35	X36	Y36	Z36	X37	Y37	Z37	X38	Y38	Z38	X39	Y39	Z39	X40	Y40	Z40	X41	Y41	Z41	X42	Y42	Z42	X43	Y43	Z43	X44	Y44	Z44	X45	Y45	Z45	X46	Y46	Z46	X47	Y47	Z47	X48	Y48	Z48	X49	Y49	Z49	X50	Y50	Z50	X51	Y51	Z51	X52	Y52	Z52	
251	1.2550	503.067385	1342.591172	-5.515770	561.461051	1367.274620	-301.347276	463.347240	1439.940478	-153.565064	460.645768	1265.393914	-164.245995	521.009702	1129.617654	166.537268	715.238315	989.708308	11.212545	582.935221	1200.612599	-527.244436	726.123578	984.128101	-402.336727	-89.392795	1227.654124	-226.480010	91.976996	1249.939669	-402.008924	72.431902	1233.561655	-38.458350	93.732220	1173.054202	-377.337719	104.643853	1174.186116	-83.769864	-57.027755	1273.014692	-184.188316	-50.025369	1276.400755	-264.038983	30.152596	1152.080895	-33.266004	13.144365	1142.509226	-437.463597	144.508088	1034.433160	-27.543786	228.416768	1006.045809	-34.687672	287.457324	943.919803	-45.401305	247.114001	1036.262960	-46.098507	378.292982	852.658980	-80.767866	374.853886	837.556849	-201.417781	347.556387	687.362805	-47.596859	346.003906	598.549239	-60.953339	301.912876	522.459970	-55.559821	370.549688	593.524849	-89.887025	259.219999	395.575128	-62.747764	273.977513	406.132114	-156.465497	202.850391	330.078765	-97.605593	505.206890	405.742851	-110.252498	397.026824	361.004124	-35.550451	412.745977	381.215329	-151.046993	118.053519	1030.639853	-464.812412	192.876971	988.794067	-474.056412	218.362435	1012.602959	-463.332033	237.652567	911.480101	-480.306890	330.211258	815.470374	-476.282438	339.257502	802.510688	-348.013236	224.406232	673.577732	-479.924860	196.812017	598.746705	-452.351838	128.333509	540.407725	-437.805663	225.382948	584.004706	-429.272479	48.762873	450.936075	-405.919635	85.654362	450.527498	-322.018418	-21.580236	453.711421	-356.536188	203.216107	238.601260	-351.240418	135.260692	302.513777	-314.455736	101.035396	302.548862	-425.707074	-214.273841	945.502256	-231.307905	-6.144033	83.938233	-435.068362	-11.628455	81.228189	-34.727642	
252	1.2600	505.223367	1341.496443	-5.985039	562.051031	1366.527248	-301.752537	465.167192	1439.253228	-153.633676	461.740493	1265.046118	-164.544558	521.949136	1129.348726	167.459926	715.129504	989.599784	11.354400	584.260305	1200.918383	-527.759265	726.111631	984.089474	-402.543671	-88.837740	1229.269963	-224.390853	91.781377	1251.455061	-400.755977	73.415415	1233.291333	-37.052490	93.589359	1174.267393	-376.528983	105.118690	1173.892392	-82.853011	-56.719907	1274.243426	-181.711293	-49.538580	1277.939880	-261.801697	30.201228	1151.185935	-32.250418	12.849448	1145.240599	-436.441702	142.824901	1031.397295	-26.586176	226.223863	1001.534930	-33.551264	284.212663	938.390862	-44.637087	245.495747	1031.531089	-44.550552	373.591040	846.295065	-79.860185	370.592109	831.588718	-200.222828	345.071319	680.972843	-46.833705	344.604909	592.066826	-60.162827	301.467950	515.522925	-54.714894	369.159136	587.377796	-88.852749	260.155779	388.004437	-61.965221	274.575722	398.767596	-155.568829	204.100384	322.626873	-96.638076	506.383445	398.198983	-110.430178	398.419504	353.285002	-35.198874	413.761314	374.053031	-150.264496	117.577050	1034.591105	-465.060565	192.645873	993.281230	-475.034867	218.015130	1017.162211	-464.151422	237.879010	916.232593	-481.924752	331.197964	820.488024	-479.265122	340.959094	807.156847	-350.778562	223.992384	679.256296	-481.723764	195.919912	604.616927	-453.550502	127.163873	547.104983	-438.301842	224.746854	589.788370	-430.992839	47.229272	458.354182	-405.627740	85.001383	457.975787	-322.014264	-22.948906	461.055996	-355.777526	202.233726	246.128864	-351.696870	134.118143	309.842217	-314.441528	99.538834	310.088390	-425.668777	-214.213500	945.524703	-231.141243	-6.142529	83.968700	-435.052589	-11.607813	81.209046	-34.704306	
253	1.2650	507.378659	1340.495001	-6.487197	562.461291	1365.965729	-302.271830	466.875779	1438.712088	-153.804724	462.781660	1264.725739	-164.932983	523.119408	1129.222468	167.998751	715.108216	989.468307	11.441805	585.408910	1201.168381	-528.138525	726.346228	984.263398	-402.606457	-88.302347	1230.694125	-222.186151	91.651117	1252.919127	-399.482582	74.318448	1232.908378	-35.622978	93.558949	1175.330608	-375.560914	105.665143	1173.522317	-81.846980	-56.284264	1275.182267	-179.354975	-48.736290	1279.081251	-259.756416	30.280579	1150.102449	-31.232737	12.614706	1148.001669	-435.302657	141.199935	1028.278892	-25.617507	224.078513	996.944509	-32.513755	281.090216	932.668268	-43.621676	244.008418	1026.669702	-43.092701	368.948812	840.046102	-79.054875	365.973782	825.285218	-199.049422	342.149757	674.802235	-45.957914	342.807260	585.925997	-59.138122	300.663890	508.796354	-53.882962	367.376057	581.557960	-87.966492	260.852951	380.623084	-61.370214	275.505333	391.360517	-154.917025	204.994787	315.289494	-95.881094	507.330590	390.511513	-110.467859	399.609757	345.631884	-34.955412	414.210883	366.587141	-149.887516	117.199909	1038.481262	-465.389346	192.526371	997.879332	-476.095112	217.760913	1021.829835	-465.028207	238.232392	921.149594	-483.869254	332.165862	825.940755	-482.858336	342.456150	811.652302	-353.615366	224.038457	685.130927	-483.593753	195.533485	610.782257	-454.965554	126.389560	553.872080	-438.882954	224.468606	595.714195	-432.766346	46.123698	465.852935	-405.459563	84.659215	465.361805	-322.025140	-23.917398	468.476414	-355.123398	201.389296	253.745366	-351.845382	133.481329	317.422414	-314.679141	98.466817	317.747499	-425.602304	-214.151839	945.556678	-230.986543	-6.125267	83.993589	-435.080072	-11.608751	81.203696	-34.695739	
254	1.2700	509.630440	1339.444030	-7.645949	563.499185	1366.177959	-302.747426	468.475068	1438.245175	-153.938010	463.763201	1264.658625	-165.459684	524.379121	1129.178556	168.486034	715.206124	989.344211	11.495922	586.401945	1201.373382	-528.495192	726.665974	984.548447	-402.766346	-87.750690	1231.799281	-220.410899	91.491129	1254.376619	-398.124653	75.278771	1232.429661	-34.102117	93.739301	1176.506090	-374.788929	106.764658	1172.938277	-80.259309	-54.477197	1275.090016	-178.090495	-46.875586	1279.326698	-258.606132	30.439614	1148.862907	-30.273273	12.480838	1150.721288	-434.124960	139.650748	1025.028709	-24.689653	222.053573	992.441793	-31.436420	278.060726	927.010938	-42.882194	242.508336	1021.907795	-41.672073	364.412924	833.883657	-78.229412	361.136939	819.005682	-197.903354	338.792688	668.683686	-44.964447	340.681685	579.761222	-58.156895	299.511196	502.067867	-53.034946	365.527018	575.705934	-87.119722	261.223462	373.242028	-60.973170	275.889255	384.282209	-154.285583	205.648871	308.223932	-95.321659	508.214636	382.551945	-110.861218	400.659222	338.119489	-34.695274	415.152164	358.187449	-151.429343	116.912771	1042.448164	-465.640240	192.520467	1002.477158	-477.124442	217.576587	1026.530455	-465.965511	238.748471	926.177392	-485.841806	333.471129	831.231443	-486.013678	343.330182	815.433530	-356.144242	224.427122	690.957532	-485.594126	195.631227	617.017404	-456.458866	126.083815	560.784518	-439.563206	224.565695	601.602404	-434.435277	45.430611	473.422474	-405.377114	84.492492	473.006986	-322.132860	-24.619052	476.070692	-354.358034	200.844571	261.493180	-352.052774	133.118553	325.185049	-314.857188	97.753462	325.442469	-425.595925	-214.129000	945.605241	-231.024824	-6.108766	84.032834	-435.060162	-11.575164	81.175815	-34.664931	
255	1.2750	511.753928	1338.643308	-8.249455	563.763342	1366.116445	-303.502268	469.935477	1438.039057	-154.076862	464.673950	1264.701037	-166.061403	525.693413	1129.253467	168.736474	715.383391	989.210585	11.508398	587.210739	1201.484847	-528.702720	726.768929	984.577810	-403.087405	-87.225054	1232.945250	-218.554972	91.404780	1255.845470	-396.836954	76.295619	1231.734141	-32.644012	93.958959	1177.599719	-373.731687	107.626927	1172.229059	-79.053035	-53.790895	1275.191668	-176.325265	-45.787400	1279.933654	-256.742070	30.668628	1147.422578	-29.287330	12.491047	1153.316029	-432.953103	138.177175	1021.986125	-23.762633	220.065212	987.991898	-30.397571	275.116177	921.790101	-42.263319	240.990838	1017.116013	-40.412594	359.945489	827.741484	-77.537069	356.754185	812.727831	-198.200088	335.097232	662.448620	-44.076756	338.291812	573.577175	-57.157961	297.976017	495.384543	-52.217122	363.329425	569.861613	-85.929059	261.260501	366.096038	-60.693793	276.132317	377.254309	-153.774622	205.986176	301.242417	-94.980172	508.725029	374.659295	-110.923532	401.007096	330.116300	-34.609331	415.331968	351.573704	-150.716767	116.759737	1046.312540	-465.875632	192.578986	1007.143217	-478.204814	217.547382	1031.268087	-466.915643	239.382986	931.276799	-487.851732	335.001050	836.535593	-489.164924	344.848398	820.091954	-358.293430	225.239334	696.885478	-487.542101	196.019279	623.184485	-457.839070	126.216037	567.569893	-440.318790	224.926740	607.482683	-435.261355	45.089252	481.040464	-405.431107	84.810737	480.638601	-322.418388	-24.645036	483.738569	-354.191733	200.716635	269.327355	-352.364390	132.912107	332.686441	-314.785388	97.388704	333.058750	-425.640655	-213.985507	945.647731	-230.616803	-6.091548	83.980812	-435.088443	-11.556031	81.180324	-34.654121	
256	1.2800	513.811714	1338.082253	-8.911647	563.800012	1366.373524	-304.432504	471.252924	1437.965090	-154.305350	465.563139	1264.976333	-166.694958	527.171203	1129.369814	168.785658	715.677907	989.087639	11.525673	587.727416	1201.560179	-528.852750	726.865099	984.665843	-403.165864	-86.816653	1233.450950	-216.909049	91.265514	1257.229844	-395.399733	77.375459	1230.912599	-31.203440	94.401872	1178.689798	-372.890962	108.586387	1171.354446	-77.790717	-52.343181	1275.271543	-174.365810	-44.978469	1280.517140	-254.716585	30.922793	1145.881184	-28.328617	12.555180	1155.757916	-431.665199	136.832415	1018.804451	-22.814211	218.110062	983.611584	-29.484742	271.450924	916.879468	-41.728191	239.567233	1012.378165	-39.176949	355.549261	821.744746	-76.789485	351.480206	806.133000	-196.734007	331.414584	656.148963	-43.150070	335.754124	567.398599	-56.321179	296.382946	488.620860	-51.672092	360.962552	563.967433	-84.905278	261.004559	359.092335	-60.584360	276.365214	370.158748	-153.466088	206.039988	295.178997	-94.188410	508.991467	366.614301	-110.969696	401.150883	322.427491	-34.589992	415.367839	343.836861	-150.677672	116.709249	1050.197923	-466.086715	192.790697	1011.732908	-479.313057	217.614358	1035.955737	-467.881560	240.150561	936.237076	-489.778086	336.664229	841.948406	-492.335592	346.915163	825.390235	-360.338590	226.357204	702.708972	-489.641084	196.843808	629.466110	-459.417182	126.644702	574.412586	-441.095208	225.740417	613.741150	-437.312773	44.917967	488.969330	-406.142634	85.406344	488.390607	-322.758946	-24.507183	491.395106	-353.973442	200.854407	277.116234	-352.478368	133.251072	340.511208	-315.052642	97.347570	340.724927	-425.689102	-213.906088	945.688671	-230.443137	-6.077414	84.015202	-435.071074	-11.515640	81.123745	-34.621126	
